<svg xmlns="http://www.w3.org/2000/svg" xmlns:xlink="http://www.w3.org/1999/xlink" width="500" zoomAndPan="magnify" viewBox="0 0 375 374.999991" height="500" preserveAspectRatio="xMidYMid meet" version="1.0"><defs><g/><clipPath id="90ce633e95"><path d="M 93.320312 73 L 297.320312 73 L 297.320312 224.25 L 93.320312 224.25 Z M 93.320312 73 " clip-rule="nonzero"/></clipPath><clipPath id="b8cc7e7404"><path d="M 170 37.5 L 221 37.5 L 221 64 L 170 64 Z M 170 37.5 " clip-rule="nonzero"/></clipPath><clipPath id="a35a60d3a6"><path d="M 29 159 L 139 159 L 139 228 L 29 228 Z M 29 159 " clip-rule="nonzero"/></clipPath><clipPath id="90b9fec8a8"><path d="M 110.785156 266.390625 L 29.257812 226.53125 L 76.039062 130.855469 L 157.566406 170.714844 Z M 110.785156 266.390625 " clip-rule="nonzero"/></clipPath><clipPath id="8726225459"><path d="M 110.785156 266.390625 L 29.257812 226.53125 L 76.039062 130.855469 L 157.566406 170.714844 Z M 110.785156 266.390625 " clip-rule="nonzero"/></clipPath><clipPath id="b705b64af2"><path d="M 74 169 L 157 169 L 157 201 L 74 201 Z M 74 169 " clip-rule="nonzero"/></clipPath><clipPath id="9cb235362f"><path d="M 110.785156 266.390625 L 29.257812 226.53125 L 76.039062 130.855469 L 157.566406 170.714844 Z M 110.785156 266.390625 " clip-rule="nonzero"/></clipPath><clipPath id="69b61a4f6e"><path d="M 110.785156 266.390625 L 29.257812 226.53125 L 76.039062 130.855469 L 157.566406 170.714844 Z M 110.785156 266.390625 " clip-rule="nonzero"/></clipPath><clipPath id="3ff2270d34"><path d="M 81 183 L 102 183 L 102 193 L 81 193 Z M 81 183 " clip-rule="nonzero"/></clipPath><clipPath id="639a6f9e15"><path d="M 110.785156 266.390625 L 29.257812 226.53125 L 76.039062 130.855469 L 157.566406 170.714844 Z M 110.785156 266.390625 " clip-rule="nonzero"/></clipPath><clipPath id="5de0766b8b"><path d="M 110.785156 266.390625 L 29.257812 226.53125 L 76.039062 130.855469 L 157.566406 170.714844 Z M 110.785156 266.390625 " clip-rule="nonzero"/></clipPath><clipPath id="000853abc9"><path d="M 102 187 L 118 187 L 118 205 L 102 205 Z M 102 187 " clip-rule="nonzero"/></clipPath><clipPath id="e5bec64ec1"><path d="M 110.785156 266.390625 L 29.257812 226.53125 L 76.039062 130.855469 L 157.566406 170.714844 Z M 110.785156 266.390625 " clip-rule="nonzero"/></clipPath><clipPath id="26a1341bc4"><path d="M 110.785156 266.390625 L 29.257812 226.53125 L 76.039062 130.855469 L 157.566406 170.714844 Z M 110.785156 266.390625 " clip-rule="nonzero"/></clipPath><clipPath id="bc0f820372"><path d="M 145.703125 131.03125 L 245 131.03125 L 245 187 L 145.703125 187 Z M 145.703125 131.03125 " clip-rule="nonzero"/></clipPath></defs><g clip-path="url(#90ce633e95)"><path fill="#000000" d="M 195.320312 224.25 C 137.199219 224.25 93.367188 193.234375 93.367188 152.097656 C 93.367188 121.554688 116.222656 88.601562 147.707031 73.730469 C 149.824219 72.753906 152.355469 73.628906 153.367188 75.75 C 154.367188 77.871094 153.460938 80.402344 151.34375 81.402344 C 123.136719 94.722656 101.863281 125.109375 101.863281 152.097656 C 101.863281 188.386719 142.039062 215.761719 195.320312 215.761719 C 248.597656 215.761719 288.777344 188.386719 288.777344 152.097656 C 288.777344 125.109375 267.503906 94.722656 239.296875 81.402344 C 237.179688 80.402344 236.269531 77.871094 237.273438 75.75 C 238.285156 73.628906 240.824219 72.746094 242.933594 73.730469 C 274.417969 88.601562 297.273438 121.554688 297.273438 152.097656 C 297.273438 193.234375 253.441406 224.25 195.320312 224.25 Z M 195.320312 224.25 " fill-opacity="1" fill-rule="nonzero"/></g><path fill="#000000" d="M 149.527344 81.8125 C 147.722656 81.8125 146.058594 80.65625 145.472656 78.855469 C 144.734375 76.53125 144.34375 73.96875 144.34375 71.453125 C 144.34375 54.476562 160.917969 54.476562 169.832031 54.476562 C 171.777344 54.476562 173.644531 54.679688 175.386719 55.097656 C 177.683594 55.632812 179.09375 57.914062 178.546875 60.199219 C 178.023438 62.480469 175.746094 63.941406 173.441406 63.355469 C 172.335938 63.101562 171.121094 62.964844 169.832031 62.964844 C 155.40625 62.964844 152.839844 65.191406 152.839844 71.453125 C 152.839844 73.074219 153.09375 74.789062 153.578125 76.269531 C 154.292969 78.5 153.050781 80.886719 150.824219 81.605469 C 150.390625 81.742188 149.957031 81.8125 149.527344 81.8125 Z M 149.527344 81.8125 " fill-opacity="1" fill-rule="nonzero"/><path fill="#000000" d="M 241.113281 81.8125 C 240.679688 81.8125 240.246094 81.742188 239.824219 81.617188 C 237.589844 80.894531 236.355469 78.507812 237.070312 76.277344 C 237.546875 74.789062 237.800781 73.074219 237.800781 71.453125 C 237.800781 65.191406 235.234375 62.964844 220.808594 62.964844 C 219.515625 62.964844 218.300781 63.101562 217.1875 63.355469 C 214.886719 63.941406 212.617188 62.472656 212.082031 60.199219 C 211.546875 57.914062 212.957031 55.640625 215.242188 55.097656 C 216.992188 54.679688 218.863281 54.476562 220.808594 54.476562 C 229.71875 54.476562 246.296875 54.476562 246.296875 71.453125 C 246.296875 73.96875 245.90625 76.53125 245.15625 78.855469 C 244.582031 80.65625 242.914062 81.8125 241.113281 81.8125 Z M 241.113281 81.8125 " fill-opacity="1" fill-rule="nonzero"/><g clip-path="url(#b8cc7e7404)"><path fill="#000000" d="M 216.210938 63.476562 C 214.199219 63.476562 212.414062 62.03125 212.039062 59.976562 C 210.585938 51.871094 203.550781 45.988281 195.320312 45.988281 C 187.085938 45.988281 180.050781 51.871094 178.597656 59.96875 C 178.183594 62.277344 175.949219 63.765625 173.671875 63.40625 C 171.359375 62.992188 169.824219 60.785156 170.238281 58.484375 C 172.421875 46.320312 182.976562 37.5 195.320312 37.5 C 207.664062 37.5 218.21875 46.320312 220.398438 58.484375 C 220.816406 60.785156 219.277344 62.992188 216.96875 63.40625 C 216.722656 63.449219 216.457031 63.476562 216.210938 63.476562 Z M 216.210938 63.476562 " fill-opacity="1" fill-rule="nonzero"/></g><path fill="#000000" d="M 140.09375 122.386719 C 139.007812 122.386719 137.917969 121.96875 137.085938 121.148438 C 135.429688 119.492188 135.429688 116.800781 137.085938 115.144531 L 162.574219 89.679688 C 164.230469 88.023438 166.925781 88.023438 168.582031 89.679688 C 170.238281 91.335938 170.238281 94.027344 168.582031 95.679688 L 143.09375 121.148438 C 142.269531 121.96875 141.183594 122.386719 140.09375 122.386719 Z M 140.09375 122.386719 " fill-opacity="1" fill-rule="nonzero"/><path fill="#000000" d="M 195.320312 130.875 C 192.976562 130.875 191.070312 128.972656 191.070312 126.628906 L 191.070312 92.675781 C 191.070312 90.332031 192.976562 88.433594 195.320312 88.433594 C 197.664062 88.433594 199.566406 90.332031 199.566406 92.675781 L 199.566406 126.628906 C 199.566406 128.972656 197.664062 130.875 195.320312 130.875 Z M 195.320312 130.875 " fill-opacity="1" fill-rule="nonzero"/><path fill="#000000" d="M 250.542969 122.386719 C 249.457031 122.386719 248.371094 121.96875 247.535156 121.148438 L 222.046875 95.679688 C 220.390625 94.027344 220.390625 91.335938 222.046875 89.679688 C 223.707031 88.023438 226.398438 88.023438 228.054688 89.679688 L 253.542969 115.144531 C 255.199219 116.800781 255.199219 119.492188 253.542969 121.148438 C 252.71875 121.96875 251.632812 122.386719 250.542969 122.386719 Z M 250.542969 122.386719 " fill-opacity="1" fill-rule="nonzero"/><g clip-path="url(#a35a60d3a6)"><g clip-path="url(#90b9fec8a8)"><g clip-path="url(#8726225459)"><path fill="#acd137" d="M 119.996094 163.640625 C 128.324219 167.710938 134.613281 174.433594 137.753906 182.792969 C 139.566406 187.5625 138.308594 195.574219 134.515625 203.171875 C 129.667969 212.917969 121.867188 220.003906 113.117188 222.628906 C 96.484375 227.554688 82.234375 225.84375 70.753906 224.464844 C 66.648438 223.988281 62.777344 223.507812 59.304688 223.417969 C 46.574219 223.074219 32.371094 227.265625 32.226562 227.316406 C 31.554688 227.496094 30.828125 227.296875 30.386719 226.765625 C 29.941406 226.234375 29.839844 225.480469 30.152344 224.847656 C 30.214844 224.722656 37.144531 210.542969 47.375 195.699219 C 61.238281 175.578125 74.300781 163.886719 86.144531 160.929688 C 97.261719 158.171875 108.503906 158.765625 117.757812 162.625 C 118.558594 162.976562 119.269531 163.285156 119.996094 163.640625 Z M 35.117188 222.921875 C 40.355469 221.640625 50.117188 219.667969 59.417969 219.902344 C 63.050781 219.992188 66.996094 220.472656 71.199219 220.996094 C 82.347656 222.332031 96.1875 224 112.132812 219.285156 C 119.957031 216.953125 127.011719 210.519531 131.390625 201.644531 C 134.6875 194.980469 135.953125 187.914062 134.480469 184.054688 C 131.335938 175.773438 125.097656 169.507812 116.429688 165.894531 C 107.824219 162.316406 97.386719 161.761719 87.003906 164.371094 C 64.496094 169.953125 41.578125 210.671875 35.117188 222.921875 Z M 35.117188 222.921875 " fill-opacity="1" fill-rule="nonzero"/></g></g></g><g clip-path="url(#b705b64af2)"><g clip-path="url(#9cb235362f)"><g clip-path="url(#69b61a4f6e)"><path fill="#acd137" d="M 155.742188 169.824219 C 155.902344 169.902344 156.074219 170.027344 156.203125 170.167969 C 156.882812 170.851562 156.890625 171.953125 156.203125 172.636719 C 155.597656 173.242188 141.125 187.734375 125.847656 189.796875 C 122.503906 190.238281 118.988281 190.558594 115.25 190.929688 C 102.5625 192.097656 88.195312 193.425781 77.042969 200.402344 C 76.214844 200.902344 75.144531 200.691406 74.621094 199.847656 C 74.128906 199.015625 74.339844 197.945312 75.183594 197.414062 C 87.054688 190.003906 101.878906 188.625 114.941406 187.402344 C 118.632812 187.050781 122.101562 186.75 125.367188 186.304688 C 132.652344 185.316406 139.957031 181.007812 144.769531 177.558594 C 150.070312 173.753906 153.65625 170.175781 153.703125 170.160156 C 154.28125 169.617188 155.113281 169.515625 155.742188 169.824219 Z M 155.742188 169.824219 " fill-opacity="1" fill-rule="nonzero"/></g></g></g><g clip-path="url(#3ff2270d34)"><g clip-path="url(#639a6f9e15)"><g clip-path="url(#5de0766b8b)"><path fill="#acd137" d="M 100.957031 189.3125 C 101.617188 189.632812 102.03125 190.386719 101.929688 191.160156 C 101.777344 192.105469 100.871094 192.761719 99.910156 192.644531 C 99.769531 192.613281 96.167969 192.066406 92.183594 191.023438 C 86.46875 189.523438 83.015625 187.792969 81.601562 185.808594 C 81.046875 185.027344 81.242188 183.90625 82.054688 183.363281 C 82.867188 182.820312 83.953125 182.996094 84.492188 183.8125 C 86.082031 186.078125 94.757812 188.320312 100.4375 189.175781 C 100.625 189.1875 100.796875 189.234375 100.957031 189.3125 Z M 100.957031 189.3125 " fill-opacity="1" fill-rule="nonzero"/></g></g></g><g clip-path="url(#000853abc9)"><g clip-path="url(#e5bec64ec1)"><g clip-path="url(#26a1341bc4)"><path fill="#acd137" d="M 116.46875 187.5625 C 116.71875 187.683594 116.972656 187.886719 117.148438 188.167969 C 117.6875 188.980469 117.476562 190.054688 116.695312 190.613281 C 116.570312 190.710938 108.207031 196.542969 106.421875 203.550781 C 106.191406 204.5 105.222656 205.042969 104.277344 204.816406 C 103.332031 204.589844 102.792969 203.621094 103.019531 202.671875 C 105.171875 194.351562 114.347656 187.976562 114.722656 187.691406 C 115.222656 187.308594 115.898438 187.285156 116.46875 187.5625 Z M 116.46875 187.5625 " fill-opacity="1" fill-rule="nonzero"/></g></g></g><g clip-path="url(#bc0f820372)"><path fill="#000000" d="M 145.890625 153.78125 C 145.792969 158.859375 148.359375 163.636719 151.195312 167.707031 C 154 171.710938 157.578125 175.207031 161.597656 178 C 169.265625 183.316406 178.65625 186.34375 187.980469 186.746094 C 197.4375 187.148438 207.132812 185.199219 215.441406 180.625 C 223.714844 176.082031 230.707031 169.386719 235.808594 161.449219 C 238.613281 157.074219 240.875 152.300781 242.460938 147.355469 C 243.308594 144.796875 243.980469 142.140625 244.421875 139.484375 C 244.828125 136.859375 245.367188 133.863281 244.523438 131.308594 C 243.710938 128.886719 240.738281 128.550781 239.589844 130.9375 C 238.679688 132.855469 238.578125 134.976562 238.140625 137.058594 C 237.699219 139.113281 237.226562 141.164062 236.617188 143.183594 C 235.46875 147.050781 233.917969 150.820312 231.921875 154.316406 C 227.902344 161.414062 222.363281 167.773438 215.472656 172.28125 C 201.828125 181.160156 183.386719 182.371094 168.792969 174.90625 C 164.539062 172.71875 160.585938 169.792969 157.34375 166.328125 C 153.660156 162.390625 151.566406 157.816406 149.035156 153.140625 C 148.289062 151.828125 145.925781 152.0625 145.890625 153.78125 Z M 145.890625 153.78125 " fill-opacity="1" fill-rule="nonzero"/></g><g fill="#000000" fill-opacity="1"><g transform="translate(20.589641, 324.262435)"><g><path d="M 4.210938 -59.21875 L 4.210938 -14.824219 L 12.214844 -14.824219 L 12.214844 -28.21875 L 41.613281 -28.136719 L 41.613281 -34.957031 L 12.214844 -34.957031 L 12.214844 -52.480469 L 41.613281 -52.480469 L 41.613281 -59.21875 Z M 4.210938 -6.738281 L 4.210938 0 L 41.613281 0 L 41.613281 -6.738281 Z M 4.210938 -6.738281 "/></g></g></g><g fill="#000000" fill-opacity="1"><g transform="translate(66.413097, 324.262435)"><g><path d="M 4.210938 -26.957031 C 4.71875 -19.039062 7.246094 -12.71875 11.878906 -7.832031 C 17.101562 -2.609375 24.089844 0 33.019531 0 L 52.058594 -0.0859375 L 51.972656 -7.832031 L 33.609375 -7.75 C 30.242188 -7.75 27.375 -8.171875 25.019531 -9.011719 C 22.660156 -9.941406 20.636719 -11.371094 18.785156 -13.394531 C 15.164062 -17.4375 13.140625 -21.902344 12.71875 -26.957031 Z M 33.019531 -59.132812 C 24.261719 -59.132812 17.183594 -56.4375 11.878906 -51.046875 C 7.664062 -46.835938 5.222656 -41.277344 4.378906 -34.367188 L 13.054688 -34.367188 C 13.984375 -38.410156 16.089844 -42.285156 19.457031 -45.992188 C 21.480469 -47.847656 23.585938 -49.109375 25.777344 -50.035156 C 27.964844 -51.046875 30.660156 -51.46875 33.777344 -51.46875 L 51.972656 -51.300781 L 52.058594 -59.132812 Z M 33.019531 -59.132812 "/></g></g></g><g fill="#000000" fill-opacity="1"><g transform="translate(122.597366, 324.262435)"><g><path d="M 37.230469 -58.882812 L 37.230469 -51.804688 C 42.539062 -51.046875 46.582031 -49.023438 49.363281 -45.824219 C 53.070312 -41.695312 54.835938 -36.222656 54.835938 -29.484375 C 54.835938 -22.914062 53.070312 -17.605469 49.363281 -13.394531 C 46.582031 -10.191406 42.539062 -8.253906 37.230469 -7.414062 L 37.230469 -0.167969 C 44.476562 -0.84375 50.289062 -3.453125 54.835938 -8.003906 C 60.230469 -13.394531 62.839844 -20.554688 62.839844 -29.484375 C 62.839844 -38.496094 60.230469 -45.65625 54.835938 -50.960938 C 50.289062 -55.59375 44.476562 -58.207031 37.230469 -58.882812 Z M 29.144531 -58.796875 C 22.324219 -58.039062 16.679688 -55.425781 12.214844 -50.960938 C 6.90625 -45.65625 4.210938 -38.496094 4.210938 -29.484375 C 4.210938 -20.554688 6.90625 -13.394531 12.214844 -8.003906 C 16.679688 -3.621094 22.324219 -1.011719 29.144531 -0.253906 L 29.144531 -7.496094 C 24.34375 -8.421875 20.554688 -10.359375 17.859375 -13.394531 C 14.234375 -17.605469 12.382812 -22.914062 12.382812 -29.484375 C 12.382812 -36.222656 14.234375 -41.695312 17.859375 -45.824219 C 20.554688 -48.855469 24.34375 -50.878906 29.144531 -51.722656 Z M 29.144531 -58.796875 "/></g></g></g><g fill="#000000" fill-opacity="1"><g transform="translate(189.647851, 324.262435)"><g><path d="M 4.296875 -59.132812 L 4.210938 -27.125 C 6.90625 -27.207031 10.699219 -27.207031 15.753906 -27.125 C 20.804688 -27.125 24.175781 -27.039062 25.777344 -27.039062 L 27.460938 -27.039062 C 28.304688 -27.125 28.808594 -27.207031 29.0625 -27.125 C 29.398438 -27.125 29.820312 -27.125 30.410156 -27.039062 C 31.082031 -27.039062 31.421875 -26.957031 31.671875 -26.871094 C 32.007812 -26.871094 32.261719 -26.785156 32.683594 -26.617188 C 33.1875 -26.535156 33.441406 -26.367188 33.777344 -26.199219 C 34.117188 -26.027344 34.453125 -25.859375 34.707031 -25.523438 C 36.8125 -23.839844 37.820312 -21.058594 37.820312 -17.351562 C 37.820312 -13.730469 36.8125 -11.035156 34.707031 -9.183594 C 32.683594 -7.496094 29.484375 -6.570312 25.1875 -6.570312 L 12.296875 -6.570312 L 12.296875 -20.386719 L 4.296875 -20.386719 L 4.296875 0.0859375 L 25.523438 0.0859375 C 32.179688 0.0859375 37.316406 -1.347656 40.855469 -4.210938 C 44.476562 -7.160156 46.246094 -11.289062 46.246094 -16.511719 C 46.246094 -20.132812 45.738281 -23.082031 44.730469 -25.355469 C 43.800781 -27.714844 42.203125 -29.820312 40.011719 -31.839844 C 41.613281 -33.777344 42.539062 -35.632812 43.042969 -37.484375 C 43.550781 -39.339844 43.800781 -41.695312 43.800781 -44.476562 C 43.800781 -49.195312 42.285156 -52.816406 38.917969 -55.34375 C 35.632812 -57.871094 30.914062 -59.132812 24.765625 -59.132812 Z M 12.296875 -52.5625 L 24.175781 -52.5625 C 28.050781 -52.5625 31 -51.890625 32.851562 -50.375 C 34.875 -48.855469 35.800781 -46.667969 35.800781 -43.632812 C 35.800781 -40.601562 34.875 -38.410156 32.851562 -36.894531 C 31 -35.464844 28.050781 -34.707031 24.175781 -34.707031 L 12.296875 -34.707031 Z M 12.296875 -52.5625 "/></g></g></g><g fill="#000000" fill-opacity="1"><g transform="translate(240.104178, 324.262435)"><g><path d="M 24.265625 -45.90625 C 29.765625 -45.90625 33.832031 -44.695312 36.46875 -42.28125 C 39.113281 -39.863281 40.4375 -36.019531 40.4375 -30.75 L 40.4375 0 L 35.046875 0 L 33.609375 -6.40625 L 33.265625 -6.40625 C 31.304688 -3.9375 29.226562 -2.109375 27.03125 -0.921875 C 24.84375 0.253906 21.867188 0.84375 18.109375 0.84375 C 14.015625 0.84375 10.617188 -0.234375 7.921875 -2.390625 C 5.222656 -4.554688 3.875 -7.941406 3.875 -12.546875 C 3.875 -17.046875 5.640625 -20.515625 9.171875 -22.953125 C 12.710938 -25.398438 18.160156 -26.734375 25.515625 -26.953125 L 33.1875 -27.203125 L 33.1875 -29.90625 C 33.1875 -33.664062 32.367188 -36.273438 30.734375 -37.734375 C 29.109375 -39.191406 26.8125 -39.921875 23.84375 -39.921875 C 21.476562 -39.921875 19.226562 -39.570312 17.09375 -38.875 C 14.96875 -38.175781 12.976562 -37.375 11.125 -36.46875 L 8.84375 -42.03125 C 10.8125 -43.101562 13.140625 -44.015625 15.828125 -44.765625 C 18.523438 -45.523438 21.335938 -45.90625 24.265625 -45.90625 Z M 33.109375 -22.0625 L 26.453125 -21.8125 C 20.835938 -21.59375 16.945312 -20.695312 14.78125 -19.125 C 12.625 -17.550781 11.546875 -15.332031 11.546875 -12.46875 C 11.546875 -9.9375 12.316406 -8.082031 13.859375 -6.90625 C 15.398438 -5.726562 17.378906 -5.140625 19.796875 -5.140625 C 23.554688 -5.140625 26.710938 -6.191406 29.265625 -8.296875 C 31.828125 -10.398438 33.109375 -13.644531 33.109375 -18.03125 Z M 19.796875 -51.046875 C 19.066406 -52.285156 18.082031 -53.660156 16.84375 -55.171875 C 15.601562 -56.691406 14.3125 -58.179688 12.96875 -59.640625 C 11.625 -61.097656 10.445312 -62.359375 9.4375 -63.421875 L 9.4375 -64.53125 L 14.484375 -64.53125 C 15.941406 -63.570312 17.457031 -62.414062 19.03125 -61.0625 C 20.601562 -59.71875 22.09375 -58.289062 23.5 -56.78125 C 25.007812 -58.289062 26.550781 -59.71875 28.125 -61.0625 C 29.695312 -62.414062 31.21875 -63.570312 32.6875 -64.53125 L 37.90625 -64.53125 L 37.90625 -63.421875 C 36.832031 -62.359375 35.609375 -61.097656 34.234375 -59.640625 C 32.859375 -58.179688 31.539062 -56.691406 30.28125 -55.171875 C 29.019531 -53.660156 28.050781 -52.285156 27.375 -51.046875 Z M 19.796875 -51.046875 "/></g></g></g><g fill="#000000" fill-opacity="1"><g transform="translate(287.359635, 324.262435)"><g><path d="M 37.230469 -58.882812 L 37.230469 -51.804688 C 42.539062 -51.046875 46.582031 -49.023438 49.363281 -45.824219 C 53.070312 -41.695312 54.835938 -36.222656 54.835938 -29.484375 C 54.835938 -22.914062 53.070312 -17.605469 49.363281 -13.394531 C 46.582031 -10.191406 42.539062 -8.253906 37.230469 -7.414062 L 37.230469 -0.167969 C 44.476562 -0.84375 50.289062 -3.453125 54.835938 -8.003906 C 60.230469 -13.394531 62.839844 -20.554688 62.839844 -29.484375 C 62.839844 -38.496094 60.230469 -45.65625 54.835938 -50.960938 C 50.289062 -55.59375 44.476562 -58.207031 37.230469 -58.882812 Z M 29.144531 -58.796875 C 22.324219 -58.039062 16.679688 -55.425781 12.214844 -50.960938 C 6.90625 -45.65625 4.210938 -38.496094 4.210938 -29.484375 C 4.210938 -20.554688 6.90625 -13.394531 12.214844 -8.003906 C 16.679688 -3.621094 22.324219 -1.011719 29.144531 -0.253906 L 29.144531 -7.496094 C 24.34375 -8.421875 20.554688 -10.359375 17.859375 -13.394531 C 14.234375 -17.605469 12.382812 -22.914062 12.382812 -29.484375 C 12.382812 -36.222656 14.234375 -41.695312 17.859375 -45.824219 C 20.554688 -48.855469 24.34375 -50.878906 29.144531 -51.722656 Z M 29.144531 -58.796875 "/></g></g></g></svg>